<svg width="48" height="48" viewBox="0 0 48 48" fill="none" xmlns="http://www.w3.org/2000/svg">
<path fill-rule="evenodd" clip-rule="evenodd" d="M20.7582 6.02347C21.6752 4.16536 24.3248 4.16535 25.2419 6.02347L29.9121 15.4864L40.3551 17.0039C42.4057 17.3018 43.2245 19.8218 41.7407 21.2681L34.184 28.634L35.9679 39.0348C36.3182 41.0771 34.1746 42.6345 32.3405 41.6702L23 36.7597L13.6595 41.6702C11.8255 42.6345 9.68188 41.0771 10.0322 39.0348L11.816 28.634L4.25941 21.2681C2.77562 19.8218 3.59439 17.3018 5.64494 17.0039L16.0879 15.4864L20.7582 6.02347ZM23 10.5192L19.3259 17.9639C18.9617 18.7017 18.2578 19.2131 17.4435 19.3315L9.22788 20.5253L15.1728 26.3201C15.762 26.8945 16.0309 27.722 15.8918 28.5329L14.4884 36.7154L21.8367 32.8522C22.565 32.4693 23.4351 32.4693 24.1634 32.8522L31.5117 36.7154L30.1083 28.5329C29.9692 27.722 30.2381 26.8945 30.8273 26.3201L36.7722 20.5253L28.5565 19.3315C27.7423 19.2131 27.0383 18.7017 26.6742 17.9639L23 10.5192Z" fill="#3B3B3B"/>
<path d="M22.0211 19.7699C22.27 18.7434 23.73 18.7434 23.9789 19.7699L24.6639 22.5946C24.7527 22.9611 25.0389 23.2473 25.4054 23.3361L28.2301 24.0211C29.2566 24.27 29.2566 25.73 28.2301 25.9789L25.4054 26.6639C25.3596 26.675 25.315 26.6892 25.272 26.7062C24.9704 26.8255 24.7416 27.0847 24.6639 27.4054L23.9789 30.2301C23.9634 30.2942 23.9431 30.3544 23.9187 30.4105C23.5522 31.2526 22.2544 31.1925 22.0211 30.2301L21.3361 27.4054C21.3306 27.3825 21.3243 27.3599 21.3172 27.3377C21.2112 27.0039 20.9382 26.7472 20.5946 26.6639L17.7699 25.9789C17.7058 25.9634 17.6456 25.9431 17.5895 25.9187C16.7474 25.5522 16.8075 24.2544 17.7699 24.0211L20.5946 23.3361C20.9611 23.2473 21.2473 22.9611 21.3361 22.5946L22.0211 19.7699Z" fill="#3B3B3B"/>
</svg>
