<svg width="48" height="48" viewBox="0 0 48 48" fill="none" xmlns="http://www.w3.org/2000/svg">
<path fill-rule="evenodd" clip-rule="evenodd" d="M27.7985 4.89015C28.9701 3.71858 30.8696 3.71858 32.0411 4.89015L37.6268 10.4758C38.7984 11.6474 38.7984 13.5469 37.6268 14.7185L17.177 35.1684C16.6996 35.6458 16.0751 35.9482 15.4045 36.0267L9.35755 36.7347C7.48368 36.954 5.87485 35.4099 6.01725 33.5286L6.49487 27.2186C6.54902 26.5032 6.85772 25.8309 7.365 25.3237L27.7985 4.89015ZM26.3073 12.0382L30.4788 16.2097L34.0913 12.5972L29.9198 8.42569L26.3073 12.0382ZM27.6504 19.0381L23.4789 14.8666L10.4555 27.89L10.0974 32.6207L14.5942 32.0942L27.6504 19.0381ZM41.9998 43.9998L5.99976 43.9999V39.9999L41.9998 39.9998V43.9998Z" fill="#3B3B3B"/>
<path d="M16 6C16 7.10457 15.1046 8 14 8C12.8954 8 12 7.10457 12 6C12 4.89543 12.8954 4 14 4C15.1046 4 16 4.89543 16 6Z" fill="#3B3B3B"/>
<path d="M10 12C10 13.1046 9.10457 14 8 14C6.89543 14 6 13.1046 6 12C6 10.8954 6.89543 10 8 10C9.10457 10 10 10.8954 10 12Z" fill="#3B3B3B"/>
<path d="M34.1842 25.6416C34.3917 24.7861 35.6083 24.7861 35.8158 25.6416L36.3866 27.9955C36.4606 28.3009 36.6991 28.5394 37.0045 28.6134L39.3584 29.1842C40.2139 29.3917 40.2139 30.6083 39.3584 30.8158L37.0045 31.3866C36.9663 31.3958 36.9292 31.4076 36.8933 31.4218C36.642 31.5213 36.4514 31.7373 36.3866 32.0045L35.8158 34.3584C35.8028 34.4119 35.7859 34.462 35.7655 34.5088C35.4602 35.2105 34.3787 35.1604 34.1842 34.3584L33.6134 32.0045C33.6088 31.9854 33.6035 31.9666 33.5977 31.9481C33.5093 31.6699 33.2818 31.456 32.9955 31.3866L30.6416 30.8158C30.5881 30.8028 30.538 30.7859 30.4912 30.7655C29.7895 30.4602 29.8396 29.3787 30.6416 29.1842L32.9955 28.6134C33.3009 28.5394 33.5394 28.3009 33.6134 27.9955L34.1842 25.6416Z" fill="#3B3B3B"/>
</svg>
