<svg width="48" height="48" viewBox="0 0 48 48" fill="none" xmlns="http://www.w3.org/2000/svg">
<path fill-rule="evenodd" clip-rule="evenodd" d="M38.71 34.3813L43.7681 39.4394L40.9396 42.2678L35.8816 37.2098C34.1099 38.4304 31.9609 39.1465 29.6468 39.1465C23.5716 39.1465 18.6468 34.2216 18.6468 28.1465C18.6468 22.0419 23.5422 17.1465 29.6468 17.1465C35.7513 17.1465 40.6468 22.0419 40.6468 28.1465C40.6468 30.4606 39.9306 32.6097 38.71 34.3813ZM5.64675 6.14648L41.6467 6.14648L41.6467 10.1465L5.64675 10.1465L5.64675 6.14648ZM36.6468 28.1465C36.6468 24.2511 33.5422 21.1465 29.6468 21.1465C25.7514 21.1465 22.6468 24.2511 22.6468 28.1465C22.6468 32.0125 25.7808 35.1465 29.6468 35.1465C31.5803 35.1465 33.3276 34.3652 34.5965 33.0962C35.8654 31.8273 36.6468 30.08 36.6468 28.1465ZM5.64675 22.1465L15.6467 22.1465L15.6467 26.1465L5.64675 26.1465L5.64675 22.1465ZM5.64675 38.1465L15.6467 38.1465L15.6467 42.1465L5.64675 42.1465L5.64675 38.1465Z" fill="#3B3B3B"/>
<path d="M28.8429 23.7844C29.0504 22.929 30.267 22.929 30.4745 23.7844L31.0452 26.1383C31.1193 26.4437 31.3578 26.6822 31.6632 26.7563L34.0171 27.327C34.8726 27.5345 34.8726 28.7512 34.0171 28.9586L31.6632 29.5294C31.625 29.5386 31.5879 29.5505 31.552 29.5647C31.3007 29.6641 31.1101 29.8801 31.0452 30.1473L30.4745 32.5012C30.4615 32.5547 30.4446 32.6048 30.4242 32.6516C30.1189 33.3533 29.0374 33.3032 28.8429 32.5012L28.2721 30.1473C28.2675 30.1282 28.2622 30.1094 28.2563 30.0909C28.168 29.8127 27.9405 29.5988 27.6542 29.5294L25.3003 28.9586C25.2468 28.9456 25.1967 28.9287 25.1499 28.9084C24.4482 28.603 24.4983 27.5215 25.3003 27.327L27.6542 26.7563C27.9596 26.6822 28.1981 26.4437 28.2721 26.1383L28.8429 23.7844Z" fill="#3B3B3B"/>
</svg>
