<svg width="48" height="48" viewBox="0 0 48 48" fill="none" xmlns="http://www.w3.org/2000/svg">
<path fill-rule="evenodd" clip-rule="evenodd" d="M38.71 34.3813L43.7681 39.4394L40.9396 42.2678L35.8816 37.2098C34.1099 38.4304 31.9609 39.1465 29.6468 39.1465C23.5716 39.1465 18.6468 34.2216 18.6468 28.1465C18.6468 22.0419 23.5422 17.1465 29.6468 17.1465C35.7513 17.1465 40.6468 22.0419 40.6468 28.1465C40.6468 30.4606 39.9306 32.6097 38.71 34.3813ZM5.64675 6.14648L41.6467 6.14648L41.6467 10.1465L5.64675 10.1465L5.64675 6.14648ZM36.6468 28.1465C36.6468 24.2511 33.5422 21.1465 29.6468 21.1465C25.7514 21.1465 22.6468 24.2511 22.6468 28.1465C22.6468 32.0125 25.7808 35.1465 29.6468 35.1465C31.5803 35.1465 33.3276 34.3652 34.5965 33.0962C35.8654 31.8273 36.6468 30.08 36.6468 28.1465ZM5.64675 22.1465L15.6467 22.1465L15.6467 26.1465L5.64675 26.1465L5.64675 22.1465ZM5.64675 38.1465L15.6467 38.1465L15.6467 42.1465L5.64675 42.1465L5.64675 38.1465Z" fill="#3B3B3B"/>
</svg>
